<?xml version="1.0" standalone="no"?>
<!DOCTYPE svg PUBLIC "-//W3C//DTD SVG 20010904//EN"
 "http://www.w3.org/TR/2001/REC-SVG-20010904/DTD/svg10.dtd">
<svg version="1.0" xmlns="http://www.w3.org/2000/svg"
 width="24.000000pt" height="24.000000pt" viewBox="0 0 24.000000 24.000000"
 preserveAspectRatio="xMidYMid meet">

<g transform="translate(0.000000,24.000000) scale(0.100000,-0.100000)"
 fill="#363f5f"  stroke="none">
<path d="M70 223 c-44 -23 -75 -81 -66 -127 3 -18 20 -45 36 -61 24 -23 39
-29 79 -29 42 -1 55 4 80 28 96 92 -12 249 -129 189z m114 -24 c47 -37 51
-114 6 -154 -10 -9 -24 -14 -29 -10 -14 8 -14 35 -1 35 22 0 40 47 32 85 l-7
37 -65 0 -65 0 -7 -37 c-8 -39 10 -85 33 -85 6 0 7 -5 4 -11 -5 -7 -14 -4 -26
7 -10 9 -19 12 -19 6 0 -6 10 -18 22 -26 12 -9 18 -16 12 -16 -33 0 -65 71
-52 117 18 67 106 96 162 52z m-8 -57 c7 -34 -8 -62 -31 -62 -8 0 -12 -12 -11
-32 1 -23 -3 -33 -14 -33 -11 0 -15 10 -14 32 1 21 -3 33 -11 33 -23 0 -38 28
-31 62 6 32 7 33 56 33 49 0 50 -1 56 -33z"/>
</g>
</svg>
